<?xml version="1.0" encoding="utf-8"?>
<!-- Generator: Adobe Illustrator 21.1.0, SVG Export Plug-In . SVG Version: 6.00 Build 0)  -->
<svg version="1.1" id="Layer_1" xmlns="http://www.w3.org/2000/svg" xmlns:xlink="http://www.w3.org/1999/xlink" x="0px" y="0px"
	 viewBox="0 0 591.3 331.5" style="enable-background:new 0 0 591.3 331.5;" xml:space="preserve">
<style type="text/css">
	.st0{fill:#427EC0;}
	.st1{fill:#181B22;}
	.st2{fill:#FFFFFF;stroke:#427EC0;stroke-width:0.5738;stroke-miterlimit:10;}
</style>
<g>
	<g>
		<polygon class="st0" points="140.7,159 245,98.9 244.8,219.2 212.8,237.6 212.9,179.8 181.6,197.9 181.8,258.9 140.6,279.2 		"/>
		<g>
			<path class="st1" d="M238.4,88.3l-3.8-2.2l-8.8-5.1l-4.3-2.5l-8.1-4.7l-4.7-2.7l-7.9-4.6l-5.1-2.9l-7.7-4.5l-5.4-3.1l-7.3-4.2
				l-5.7-3.3l-7.1-4.1l-5.9-3.4l-6.9-4l-6.2-3.6l-5.5-3.2l-0.8,0.4l-6,3.5l-20.9,12l-7.5,4.3L81.3,62.7l-7.1,4.1L51.8,79.7l-6.5,3.7
				L27.7,93.5v0v0l-0.2,127.1l110,63.7h0l110.2-63.4l0.2-127.1L238.4,88.3z M46.2,86.3c1,1.3,2.8,2,4.5,1.5c2.4-0.6,3.8-3,3.2-5.4
				c0-0.2-0.1-0.4-0.2-0.5l21.8-12.6c1.1,1,2.6,1.4,4.1,1.1c2.3-0.6,3.8-2.9,3.2-5.3l11.8-6.8c-0.6,1-0.8,2.2-0.5,3.4
				c0.6,2.4,3,3.8,5.4,3.2c2.4-0.6,3.8-3,3.2-5.4c-0.5-2-2.4-3.4-4.4-3.3l6.2-3.6c1,0.6,2.2,0.8,3.4,0.5c2-0.5,3.4-2.4,3.3-4.4
				l11-6.3c0,0.5,0,1,0.1,1.5c0.6,2.4,3,3.8,5.4,3.2c2.4-0.6,3.8-3,3.2-5.4c-0.3-1.3-1.3-2.4-2.4-2.9l9.4-5.4l3.3,1.9
				c-0.4,0.9-0.6,1.9-0.3,3c0.6,2.4,3,3.8,5.4,3.2c1.1-0.3,2-0.9,2.5-1.8l5.3,3.1c-0.5,0.9-0.7,2-0.4,3.1c0.6,2.4,3,3.8,5.4,3.2
				c1.1-0.3,2.1-1,2.6-1.9l5.3,3.1c-0.6,1-0.8,2.1-0.5,3.3c0.6,2.4,3,3.8,5.4,3.2c1.2-0.3,2.2-1.1,2.7-2.1l5.2,3
				c-0.6,1-0.9,2.2-0.6,3.4c0.6,2.4,3,3.8,5.4,3.2c1.3-0.3,2.2-1.2,2.8-2.2l5.3,3.1c-0.7,1-1,2.3-0.7,3.6c0.6,2.4,3,3.8,5.4,3.2
				c1.3-0.3,2.3-1.2,2.9-2.4l5.2,3c-0.8,1-1.1,2.4-0.8,3.7c0.6,2.4,3,3.8,5.4,3.2c1.4-0.3,2.4-1.3,3-2.5l5,2.9
				c-0.8,1-1.2,2.4-0.9,3.8c0.6,2.4,3,3.8,5.4,3.2c1.4-0.4,2.5-1.4,3-2.7l5.4,3.1c-0.9,1.1-1.3,2.5-1,4c0.6,2.4,3,3.8,5.4,3.2
				c1.5-0.4,2.6-1.5,3.1-2.8l3.3,1.9l-10.8,6.2c-1-0.8-2.4-1.2-3.8-0.9c-2.2,0.6-3.6,2.7-3.3,4.9l-12.6,7.2c0.8-1,1.2-2.4,0.8-3.8
				c-0.6-2.4-3-3.8-5.4-3.2c-2.4,0.6-3.8,3-3.2,5.4c0.6,2.2,2.7,3.6,4.9,3.3l-23.9,13.8c0-0.4,0-0.7-0.1-1.1c-0.6-2.4-3-3.8-5.4-3.2
				c-2.4,0.6-3.8,3-3.2,5.4c0.3,1.2,1.1,2.2,2.1,2.7L156.6,143c-0.8-2-3-3.1-5.1-2.6c-2.4,0.6-3.8,3-3.2,5.4
				c0.1,0.6,0.4,1.1,0.7,1.6l-11.2,6.4l-2.2-1.3c0.8-1,1.2-2.4,0.8-3.8c-0.6-2.4-3-3.8-5.4-3.2c-1.4,0.4-2.5,1.4-3,2.7l-5.3-3.1
				c0.9-1.1,1.3-2.5,1-4c-0.6-2.4-3-3.8-5.4-3.2c-1.5,0.4-2.6,1.5-3.1,2.8l-5.4-3.1c1-1.1,1.5-2.6,1.1-4.1c-0.6-2.4-3-3.8-5.4-3.2
				c-1.6,0.4-2.7,1.6-3.1,3l-5.6-3.2c1.1-1.1,1.6-2.6,1.2-4.2c-0.6-2.4-3-3.8-5.4-3.2c-1.6,0.4-2.8,1.7-3.2,3.2l-5.3-3
				c1.2-1.1,1.7-2.7,1.3-4.3c-0.6-2.4-3-3.8-5.4-3.2c-1.7,0.4-2.9,1.8-3.2,3.3l-5.9-3.4c1.3-1.1,1.9-2.8,1.5-4.5
				c-0.6-2.4-3-3.8-5.4-3.2c-1.7,0.4-3,1.9-3.3,3.5l-5.3-3c1.4-1,2-2.8,1.6-4.6c-0.6-2.4-3-3.8-5.4-3.2c-1.8,0.5-3.1,2-3.3,3.7
				l-6.8-3.9c1.5-1,2.2-2.9,1.8-4.7c-0.6-2.4-3-3.8-5.4-3.2c-1.9,0.5-3.2,2.1-3.3,3.9l-4-2.3L46.2,86.3z M134.7,199.2l-34.1-18.8
				l0.9-40.7l33.2,19.2L134.7,199.2z M62.6,117.2L61.8,159l-31.1-17.2l0.1-43.1L62.6,117.2z M30.6,186L60.9,203l-0.7,33.1L30.6,219
				L30.6,186z M98.9,258.5l0.8-33.6l35,19.8l0,34.6L98.9,258.5z M183.9,223.9l0-24.6l26.7-15.5l-0.1,51.8L183.9,223.9z M244.8,219.2
				l-32,18.4l0.1-57.9l-31.2,18.2l0,27.4l0,1.8l0,28.5l-41,23.6l0.1-120.3l89.2-51.4c0.5-0.2,1-0.4,1.4-0.8l13.6-7.8L244.8,219.2z"
				/>
			
				<ellipse transform="matrix(0.9699 -0.2434 0.2434 0.9699 -16.8378 55.3768)" class="st1" cx="215.7" cy="95.8" rx="4.4" ry="4.4"/>
			
				<ellipse transform="matrix(0.9699 -0.2434 0.2434 0.9699 -11.0159 42.1068)" class="st1" cx="164.9" cy="65.6" rx="4.4" ry="4.4"/>
			
				<ellipse transform="matrix(0.9699 -0.2434 0.2434 0.9699 -17.2871 47.3292)" class="st1" cx="182.9" cy="93.6" rx="4.4" ry="4.4"/>
			
				<ellipse transform="matrix(0.9699 -0.2434 0.2434 0.9699 -15.4064 52.1136)" class="st1" cx="203.2" cy="88.4" rx="4.4" ry="4.4"/>
			
				<ellipse transform="matrix(0.9699 -0.2434 0.2434 0.9699 -12.4747 45.431)" class="st1" cx="177.6" cy="73.2" rx="4.4" ry="4.4"/>
			
				<ellipse transform="matrix(0.9699 -0.2434 0.2434 0.9699 -13.9495 48.7924)" class="st1" cx="190.5" cy="80.8" rx="4.4" ry="4.4"/>
			<ellipse transform="matrix(0.9699 -0.2434 0.2434 0.9699 -15.8123 43.9674)" class="st1" cx="170" cy="86" rx="4.4" ry="4.4"/>
			
				<ellipse transform="matrix(0.9699 -0.2434 0.2434 0.9699 -22.0738 49.1915)" class="st1" cx="188" cy="113.9" rx="4.4" ry="4.4"/>
			
				<ellipse transform="matrix(0.9699 -0.2434 0.2434 0.9699 -18.7441 50.6505)" class="st1" cx="195.6" cy="101.2" rx="4.4" ry="4.4"/>
			
				<ellipse transform="matrix(0.9699 -0.2434 0.2434 0.9699 -20.6169 45.8705)" class="st1" cx="175.3" cy="106.4" rx="4.4" ry="4.4"/>
			
				<ellipse transform="matrix(0.9699 -0.2434 0.2434 0.9699 -11.4057 33.9222)" class="st1" cx="131.6" cy="63.1" rx="4.4" ry="4.4"/>
			<ellipse transform="matrix(0.9699 -0.2434 0.2434 0.9699 -9.5445 38.7513)" class="st1" cx="152" cy="58" rx="4.4" ry="4.4"/>
			
				<ellipse transform="matrix(0.9699 -0.2434 0.2434 0.9699 -8.0683 35.3863)" class="st1" cx="139.2" cy="50.3" rx="4.4" ry="4.4"/>
			<ellipse transform="matrix(0.9699 -0.2434 0.2434 0.9699 -9.9755 30.662)" class="st1" cx="119.1" cy="55.7" rx="4.4" ry="4.4"/>
			
				<ellipse transform="matrix(0.9699 -0.2434 0.2434 0.9699 -21.0259 37.7156)" class="st1" cx="142.1" cy="103.9" rx="4.4" ry="4.4"/>
			
				<ellipse transform="matrix(0.9699 -0.2434 0.2434 0.9699 -19.1413 42.5063)" class="st1" cx="162.4" cy="98.7" rx="4.4" ry="4.4"/>
			
				<ellipse transform="matrix(0.9699 -0.2434 0.2434 0.9699 -16.2117 35.8288)" class="st1" cx="136.9" cy="83.5" rx="4.4" ry="4.4"/>
			
				<ellipse transform="matrix(0.9699 -0.2434 0.2434 0.9699 -14.3533 40.6419)" class="st1" cx="157.3" cy="78.4" rx="4.4" ry="4.4"/>
			
				<ellipse transform="matrix(0.9699 -0.2434 0.2434 0.9699 -17.6828 39.1821)" class="st1" cx="149.7" cy="91.1" rx="4.4" ry="4.4"/>
			
				<ellipse transform="matrix(0.9699 -0.2434 0.2434 0.9699 -19.554 34.3602)" class="st1" cx="129.3" cy="96.3" rx="4.4" ry="4.4"/>
			
				<ellipse transform="matrix(0.9699 -0.2434 0.2434 0.9699 -12.8821 37.2879)" class="st1" cx="144.4" cy="70.8" rx="4.4" ry="4.4"/>
			<ellipse transform="matrix(0.9699 -0.2434 0.2434 0.9699 -14.7352 32.4627)" class="st1" cx="124" cy="75.9" rx="4.4" ry="4.4"/>
			
				<ellipse transform="matrix(0.9699 -0.2434 0.2434 0.9699 -25.8103 39.5807)" class="st1" cx="147.3" cy="124.2" rx="4.4" ry="4.4"/>
			
				<ellipse transform="matrix(0.9699 -0.2434 0.2434 0.9699 -23.9591 44.4017)" class="st1" cx="167.7" cy="119.2" rx="4.4" ry="4.4"/>
			
				<ellipse transform="matrix(0.9699 -0.2434 0.2434 0.9699 -27.285 42.9423)" class="st1" cx="160.1" cy="131.9" rx="4.4" ry="4.4"/>
			
				<ellipse transform="matrix(0.9699 -0.2434 0.2434 0.9699 -29.1642 38.1091)" class="st1" cx="139.6" cy="137.1" rx="4.4" ry="4.4"/>
			
				<ellipse transform="matrix(0.9699 -0.2434 0.2434 0.9699 -22.4845 41.0403)" class="st1" cx="154.8" cy="111.5" rx="4.4" ry="4.4"/>
			
				<ellipse transform="matrix(0.9699 -0.2434 0.2434 0.9699 -24.3518 36.2558)" class="st1" cx="134.5" cy="116.7" rx="4.4" ry="4.4"/>
			
				<ellipse transform="matrix(0.9699 -0.2434 0.2434 0.9699 -15.1562 24.3352)" class="st1" cx="90.9" cy="73.5" rx="4.4" ry="4.4"/>
			
				<ellipse transform="matrix(0.9699 -0.2434 0.2434 0.9699 -13.3051 29.203)" class="st1" cx="111.5" cy="68.4" rx="4.4" ry="4.4"/>
			
				<ellipse transform="matrix(0.9699 -0.2434 0.2434 0.9699 -24.758 28.0649)" class="st1" cx="101.2" cy="114.2" rx="4.4" ry="4.4"/>
			
				<ellipse transform="matrix(0.9699 -0.2434 0.2434 0.9699 -22.8804 32.9018)" class="st1" cx="121.7" cy="109" rx="4.4" ry="4.4"/>
			<ellipse transform="matrix(0.9699 -0.2434 0.2434 0.9699 -19.9741 26.2768)" class="st1" cx="96.3" cy="94" rx="4.4" ry="4.4"/>
			
				<ellipse transform="matrix(0.9699 -0.2434 0.2434 0.9699 -18.0785 30.9967)" class="st1" cx="116.4" cy="88.7" rx="4.4" ry="4.4"/>
			
				<ellipse transform="matrix(0.9699 -0.2434 0.2434 0.9699 -21.4041 29.5367)" class="st1" cx="108.8" cy="101.4" rx="4.4" ry="4.4"/>
			
				<ellipse transform="matrix(0.9699 -0.2434 0.2434 0.9699 -23.3276 24.8045)" class="st1" cx="88.7" cy="106.8" rx="4.4" ry="4.4"/>
			
				<ellipse transform="matrix(0.9699 -0.2434 0.2434 0.9699 -16.6483 27.7366)" class="st1" cx="103.9" cy="81.2" rx="4.4" ry="4.4"/>
			
				<ellipse transform="matrix(0.9699 -0.2434 0.2434 0.9699 -18.4823 22.8763)" class="st1" cx="83.3" cy="86.2" rx="4.4" ry="4.4"/>
			
				<ellipse transform="matrix(0.9699 -0.2434 0.2434 0.9699 -27.7065 34.7853)" class="st1" cx="126.9" cy="129.5" rx="4.4" ry="4.4"/>
			
				<ellipse transform="matrix(0.9699 -0.2434 0.2434 0.9699 -26.2342 31.43)" class="st1" cx="114.1" cy="121.9" rx="4.4" ry="4.4"/>
			<ellipse transform="matrix(0.9699 -0.2434 0.2434 0.9699 -17.0714 19.6603)" class="st1" cx="71" cy="78.9" rx="4.4" ry="4.4"/>
			
				<ellipse transform="matrix(0.9699 -0.2434 0.2434 0.9699 -21.8368 21.4055)" class="st1" cx="75.7" cy="99.1" rx="4.4" ry="4.4"/>
			<ellipse transform="matrix(0.9699 -0.2434 0.2434 0.9699 -20.4255 18.189)" class="st1" cx="63.4" cy="91.7" rx="4.4" ry="4.4"/>
		</g>
	</g>
	
		<image style="overflow:visible;" width="174" height="155" xlink:href="Screen Shot 2018-01-23 at 16.17.58.png"  transform="matrix(4.397069e-03 0 0 4.397069e-03 491.4056 246.2417)">
	</image>
	<g>
		<g>
			<path class="st0" d="M503.7,103.6c-1.8,0-3.3-1.5-3.3-3.2c0-1.8,1.4-3.3,3.2-3.3l28.4-0.1c0,0,0,0,0,0c1.8,0,3.3,1.5,3.3,3.2
				c0,1.8-1.4,3.3-3.2,3.3L503.7,103.6C503.7,103.6,503.7,103.6,503.7,103.6z"/>
			<path class="st0" d="M287.1,130.1c-1.8,0-3.3-1.5-3.3-3.2l-0.2-51.9c0-0.9,0.3-1.7,0.9-2.3c0.6-0.6,1.4-1,2.3-1l51.9-0.2
				c0,0,0,0,0,0c0.9,0,1.7,0.3,2.3,0.9c0.6,0.6,1,1.4,1,2.3l0.2,51.9c0,1.8-1.4,3.3-3.2,3.3c0,0,0,0,0,0c-1.8,0-3.3-1.5-3.3-3.2
				L335.7,78l-45.4,0.1l0.2,48.7C290.4,128.7,288.9,130.1,287.1,130.1C287.1,130.1,287.1,130.1,287.1,130.1z"/>
			<path class="st0" d="M359.1,129.9c-1.8,0-3.3-1.5-3.3-3.2l-0.2-51.9c0-1.8,1.4-3.3,3.2-3.3l51.9-0.2c0.9,0,1.7,0.3,2.3,0.9
				c0.6,0.6,1,1.4,1,2.3l0.2,51.9c0,0.9-0.3,1.7-0.9,2.3c-0.6,0.6-1.4,1-2.3,1L359.1,129.9C359.1,129.9,359.1,129.9,359.1,129.9z
				 M362.2,78l0.1,45.4l45.4-0.1l-0.1-45.4L362.2,78z"/>
			<path class="st0" d="M431.1,129.7c-1.8,0-3.3-1.5-3.3-3.2l-0.2-51.9c0-0.9,0.3-1.7,0.9-2.3c0.6-0.6,1.4-1,2.3-1l41.8-0.1
				c0.9,0,1.7,0.3,2.3,0.9l10.2,10c0.6,0.6,1,1.4,1,2.3l0.1,31.9c0,0.8-0.3,1.5-0.8,2.1l-8.6,10.1c-0.6,0.7-1.5,1.1-2.5,1.1
				L431.1,129.7C431.1,129.7,431.1,129.7,431.1,129.7z M474.4,126.3L474.4,126.3L474.4,126.3z M434.2,77.8l0.1,45.4l38.5-0.1l6.8-8
				l-0.1-29.3l-8.3-8.1L434.2,77.8z"/>
			<path class="st0" d="M503.9,129.5c-1.8,0-3.3-1.5-3.3-3.2l-0.2-51.9c0-0.9,0.3-1.7,0.9-2.3c0.6-0.6,1.4-1,2.3-1l51.9-0.2
				c0,0,0,0,0,0c1.8,0,3.3,1.5,3.3,3.2c0,1.8-1.4,3.3-3.2,3.3L507,77.6l0.1,45.4l48.7-0.2c0,0,0,0,0,0c1.8,0,3.3,1.5,3.3,3.2
				c0,1.8-1.4,3.3-3.2,3.3L503.9,129.5C503.9,129.5,503.9,129.5,503.9,129.5z"/>
		</g>
	</g>
	<g>
		<path class="st1" d="M139.2,311.2c-0.4,0-0.9-0.2-1.1-0.6c-0.4-0.6-0.2-1.4,0.4-1.8L267,232.2V73.9c0-0.7,0.6-1.3,1.3-1.3
			c0.7,0,1.3,0.6,1.3,1.3v159c0,0.5-0.2,0.9-0.6,1.1l-129.1,77C139.7,311.1,139.5,311.2,139.2,311.2z"/>
	</g>
	<path class="st0" d="M328,217.3h-41.3c-1.8,0-3.3-1.5-3.3-3.3v-41.3c0-1.8,1.5-3.3,3.3-3.3H328c1.8,0,3.3,1.5,3.3,3.3
		c0,1.8-1.5,3.3-3.3,3.3h-38.1v34.8H328c1.8,0,3.3,1.5,3.3,3.3C331.2,215.9,329.8,217.3,328,217.3z"/>
	<path class="st0" d="M473.2,217.3c-1.8,0-3.3-1.5-3.3-3.3V176h-34.8v38.1c0,1.8-1.5,3.3-3.3,3.3s-3.3-1.5-3.3-3.3v-41.3
		c0-1.8,1.5-3.3,3.3-3.3h41.3c1.8,0,3.3,1.5,3.3,3.3v41.3C476.4,215.9,475,217.3,473.2,217.3z"/>
	<path class="st0" d="M555.8,217.3h-41.3c-1.8,0-3.3-1.5-3.3-3.3v-41.3c0-1.8,1.5-3.3,3.3-3.3h41.3c1.8,0,3.3,1.5,3.3,3.3
		c0,1.8-1.5,3.3-3.3,3.3h-38.1v34.8h38.1c1.8,0,3.3,1.5,3.3,3.3C559,215.9,557.6,217.3,555.8,217.3z"/>
	<path class="st0" d="M493.7,217.8c-1.8,0-3.3-1.5-3.3-3.3v-41.3c0-1.8,1.5-3.3,3.3-3.3s3.3,1.5,3.3,3.3v41.3
		C496.9,216.3,495.5,217.8,493.7,217.8z"/>
	<path class="st0" d="M411.4,217.3c-1.8,0-3.3-1.5-3.3-3.3v-41.3c0-1.8,1.5-3.3,3.3-3.3s3.3,1.5,3.3,3.3v41.3
		C414.7,215.9,413.2,217.3,411.4,217.3z"/>
	<path class="st0" d="M391,217.3h-41.3c-1.8,0-3.3-1.5-3.3-3.3v-41.3c0-1.8,1.5-3.3,3.3-3.3c1.8,0,3.3,1.5,3.3,3.3v38.1H391
		c1.8,0,3.3,1.5,3.3,3.3C394.3,215.9,392.8,217.3,391,217.3z"/>
	<path class="st1" d="M557.7,234.2H268.3c-0.7,0-1.3-0.6-1.3-1.3c0-0.7,0.6-1.3,1.3-1.3h289.4c0.7,0,1.3,0.6,1.3,1.3
		C559,233.6,558.4,234.2,557.7,234.2z"/>
	<path class="st1" d="M268.2,184.1c-0.2,0-0.4-0.1-0.7-0.2c-0.6-0.4-0.8-1.2-0.5-1.8l33.9-57.9c0.2-0.4,0.6-0.6,1-0.6
		c0.4,0,0.8,0.1,1.1,0.4l29,29.9l6-7.4c0.2-0.3,0.6-0.5,1-0.5c0.4,0,0.7,0.1,1,0.4l29.1,31.9l23.5-31.8c0.2-0.3,0.6-0.5,1-0.5
		c0,0,0,0,0,0c0.4,0,0.8,0.2,1,0.5l5.4,7.5h56.7l8-7.6c0.5-0.5,1.3-0.5,1.8,0l7.8,7.6h83.1c0.7,0,1.3,0.6,1.3,1.3s-0.6,1.3-1.3,1.3
		h-83.6c-0.3,0-0.7-0.1-0.9-0.4l-7.3-7.1l-7.5,7.1c-0.2,0.2-0.6,0.4-0.9,0.4h-57.9c-0.4,0-0.8-0.2-1.1-0.5l-4.8-6.6l-23.3,31.7
		c-0.2,0.3-0.6,0.5-1,0.5c-0.4,0-0.8-0.1-1-0.4l-29.1-32l-5.9,7.4c-0.2,0.3-0.6,0.5-1,0.5c-0.4,0-0.7-0.1-1-0.4L302.4,127l-33,56.4
		C269.1,183.9,268.7,184.1,268.2,184.1z"/>
</g>
</svg>
